/* XPM */
static char *_ec5ad2ff7f4469c8bcba59da5a4230aHEy6G9H2ZqVBYwHn[] = {
/* columns rows colors chars-per-pixel */
"16 16 127 2 ",
"   c None",
".  c #010201",
"X  c #060704",
"o  c #070705",
"O  c #060606",
"+  c #070706",
"@  c #070804",
"#  c #090904",
"$  c #090A04",
"%  c #080807",
"&  c #0B0B07",
"*  c #0B0C04",
"=  c #0C0C05",
"-  c #0C0D05",
";  c #0D0E05",
":  c #0E0F06",
">  c #0E0E07",
",  c #090909",
"<  c #0B0B08",
"1  c #0D0D0A",
"2  c #0E0F0A",
"3  c #0E0F0B",
"4  c gray5",
"5  c #0F1006",
"6  c #0F1007",
"7  c #101107",
"8  c #111207",
"9  c #121307",
"0  c #111209",
"q  c #121308",
"w  c #10110B",
"e  c #12130B",
"r  c #131408",
"t  c #151608",
"y  c #151609",
"u  c #14150A",
"i  c #10100D",
"p  c #13140E",
"a  c #14140C",
"s  c #171809",
"d  c #17180D",
"f  c #1A1C0B",
"g  c #191B0D",
"h  c #1B1C0D",
"j  c #1B1C0F",
"k  c #1D1E0C",
"l  c #1D1F0E",
"z  c #171714",
"x  c #181910",
"c  c #191912",
"v  c #1A1B13",
"b  c #1C1D10",
"n  c #1D1F12",
"m  c #1D1E13",
"M  c #1E1F12",
"N  c #1A1A17",
"B  c #1B1B1B",
"V  c #20220D",
"C  c #21230D",
"Z  c #21230F",
"A  c #23250F",
"S  c #202111",
"D  c #212211",
"F  c #212212",
"G  c #212313",
"H  c #232412",
"J  c #242512",
"K  c #202116",
"L  c #222415",
"P  c #242516",
"I  c #262910",
"U  c #262811",
"Y  c #272A10",
"T  c #2B2D11",
"R  c #2C2E11",
"E  c #282A14",
"W  c #2A2B17",
"Q  c #2A2C14",
"!  c #2B2D14",
"~  c #212118",
"^  c #212219",
"/  c #25261A",
"(  c #26271C",
")  c #27281B",
"_  c #2A2C19",
"`  c #2D2F1A",
"'  c #292A1E",
"]  c #2B2C1C",
"[  c #2E3013",
"{  c #2F3113",
"}  c #2F3116",
"|  c #2E301A",
" . c #313413",
".. c #323414",
"X. c #323514",
"o. c #323417",
"O. c #343715",
"+. c #373A16",
"@. c #30321A",
"#. c #32341A",
"$. c #33351B",
"%. c #343719",
"&. c #34361A",
"*. c #32331F",
"=. c #33351C",
"-. c #383B18",
";. c #393C1A",
":. c #3B3E1A",
">. c #3C3F19",
",. c #3C3F1A",
"<. c #3C3F1B",
"1. c #3D3F1E",
"2. c gray15",
"3. c #2E2F23",
"4. c #2F302A",
"5. c #393B22",
"6. c #3E411A",
"7. c #3E411B",
"8. c #3E411C",
"9. c #3F4224",
"0. c #40431A",
"q. c #40441A",
"w. c #42451B",
"e. c #40431F",
"r. c #464A1F",
"t. c #434620",
"y. c #454826",
/* pixels */
"                                ",
"    , @ - 0 u 9 - & i           ",
"  2 - c u h } ' 3.t             ",
"  J I c b D U N K Z             ",
"  ;.8.a g     . P R             ",
"  8.7.- b     5 $.+.            ",
"  ! W & 9 Z *.Z e.w.y.&.` u &   ",
"  0 p z ^ ] 5.X.t.r.7. .! D - 2 ",
"  % r T } s $.7.1.<.h ;.) 4.9   ",
"  2.L ;.X.b 9.6.*.X.) D g ] r   ",
"            $.} J W     T | 9   ",
"            J D y g     / K 5   ",
"            0 i & * 9 0 9 5 &   ",
"            o 4 c k | A b 3 &   ",
"            B & g  .0.{ s o     ",
"                                "
};
