/* XPM */
static char *ec26ee3e157c4679c49d622465b20fc8Kd4fsNPPahIzOLWI[] = {
/* columns rows colors chars-per-pixel */
"32 32 111 2 ",
"   c None",
".  c #030302",
"X  c #070804",
"o  c #0C0C05",
"O  c #0C0D0B",
"+  c #0F1006",
"@  c #111207",
"#  c #14150A",
"$  c #17180A",
"%  c #1A1C0B",
"&  c #151513",
"*  c #171814",
"=  c #1A1B13",
"-  c #1C1C1A",
";  c #1F200C",
":  c #1F2011",
">  c #1F201E",
",  c #22240E",
"<  c #26280F",
"1  c #282A0F",
"2  c #222314",
"3  c #272911",
"4  c #2A2D11",
"5  c #22231B",
"6  c #2B2C1B",
"7  c #2E3113",
"8  c #313414",
"9  c #363916",
"0  c #393C17",
"q  c #31331C",
"w  c #373A18",
"e  c #3B3E1A",
"r  c #252522",
"t  c #2B2C26",
"y  c #2D2D2A",
"u  c #2F2F2E",
"i  c #2A2A2A",
"p  c #2F3022",
"a  c #2F3023",
"s  c #333526",
"d  c #353624",
"f  c #353726",
"g  c #323421",
"h  c #363821",
"j  c #383A23",
"k  c #3A3B22",
"l  c #3D3F23",
"z  c #383A25",
"x  c #393B27",
"c  c #3D3F26",
"v  c #393C20",
"b  c #353728",
"n  c #373729",
"m  c #31312F",
"M  c #383928",
"N  c #383833",
"B  c #3B3C34",
"V  c #3E3F35",
"C  c #3D4018",
"Z  c #3D4019",
"A  c #3D4119",
"S  c #3E4119",
"D  c #3E4219",
"F  c #3E411B",
"G  c #3F421A",
"H  c #3F421E",
"J  c #3E4119",
"K  c #3E4020",
"L  c #3E4120",
"P  c #3E4028",
"I  c #3E402C",
"U  c #3F4130",
"Y  c #404319",
"T  c #40441A",
"R  c #41441A",
"E  c #42451B",
"W  c #42461A",
"Q  c #43461B",
"!  c #40431E",
"~  c #43471D",
"^  c #42461B",
"/  c #44481B",
"(  c #464A1C",
")  c #464A1D",
"_  c #45491E",
"`  c #404320",
"'  c #414320",
"]  c #404322",
"[  c #414520",
"{  c #414325",
"}  c #404326",
"|  c #454822",
" . c #484C22",
".. c #494C23",
"X. c #4B4E23",
"o. c #484B26",
"O. c #45472A",
"+. c #43452D",
"@. c #474A28",
"#. c #424330",
"$. c #414236",
"%. c #444537",
"&. c #444530",
"*. c #464931",
"=. c #4F5133",
"-. c #535633",
";. c #525438",
":. c #595C3D",
">. c #5B5D3F",
",. c #585A3C",
"<. c #565841",
/* pixels */
"                                                                ",
"            O . . o # = 5 r t r X X . O &                       ",
"          & . . X o o + @ @ + o o X X . .                       ",
"        . . O X o @ @ @ # # # # # @ @ X #                       ",
"      O . X - o @ % = $ $ $ 2 s q 5 # @ #                       ",
"      o @ # a o @   # 2 ! l 6 r   6 $ $ 5                       ",
"      $ % , t o #   2 4 e 1 @ i & 6 ; $ 2                       ",
"      < 4 8 = @ #   = % ; % u . & j < , h                       ",
"    P 8 9 9 o @ #           . . . 4 4 1                         ",
"    H e ! o.5 @ #           . . - ] 8 4                         ",
"    ! T ! H # @ #           o o # e w 8                         ",
"    L e 9 e X o #           # # a | S 9                         ",
"    q 4 1 #.O o @ $ 2 q   M $ % 6 ) T S :.e l P c I $ @ X X O   ",
"    q , % 6 O X @ # % , q 3 < < *.T ) T -.w 8 4 2 , % @ O X .   ",
"    $ # +   . . X @ $ % M k 7 7 -.T ) X.S e 8 4 3 , % $ @ X .   ",
"    # X X   y N B #.$.%.  e w w O.S T X.  S w 8 4 j f 5 @ X #   ",
"    . . r @ % < 4 < % + = ! S C :.9 e o.  % 9 ! q 5     # + o   ",
"    . & X $ < w e 4 , o O X.( T w 8 9 e = 1 e 8 $ m i 2 # o &   ",
"    i . @ ; 8 S S 4 % o r | T S <.4 8 O.5 % 3 $ = = $ b # @ =   ",
"                          e e w 3 < 3 8         @ 3 } % # @ #   ",
"                          9 8 v x , < +.        , e S 6 $ + 5   ",
"                          4 3 3 : % ;           , 4 j = # + @   ",
"                          , , 6 5 # $           % @ * 2 @ o t   ",
"                        6 $ $ 5 $ + # #               $ + o     ",
"                        5 @ O # @ o o @ @ # # # # # @ + o X     ",
"                        # X . > O . X X o o @ @ @ o o o X X     ",
"                        * . .   u > O . r - @ o 5 = o & O .     ",
"                        X . * & O % < 4 e S 9 7 2 $ o O . O     ",
"                        & i O X @ % 1 9 T Q 9 7 , # X . -       ",
"                        > O . X # < 8 e Y e 8 < % o . *         ",
"                                        ,.;.+.g 2 o             ",
"                                                                "
};
