/* XPM */
static char *_6c1d728514646b3c39abd5e6446e05eHkam0zIm0aNKP744[] = {
/* columns rows colors chars-per-pixel */
"64 64 136 2 ",
"   c None",
".  c #030301",
"X  c #070803",
"o  c #0B0C04",
"O  c #0C0C0B",
"+  c #0F1006",
"@  c #0F1008",
"#  c #111207",
"$  c #141509",
"%  c #171809",
"&  c #1B1C0B",
"*  c #141413",
"=  c #1A1B15",
"-  c #1C1C1B",
";  c #1F200C",
":  c #1F2111",
">  c #23240E",
",  c #26280F",
"<  c #232413",
"1  c #272911",
"2  c #2B2D11",
"3  c #24251A",
"4  c #27281D",
"5  c #2A2C1B",
"6  c #2E3113",
"7  c #2E301B",
"8  c #323514",
"9  c #363916",
"0  c #393C17",
"q  c #31331D",
"w  c #3B3E18",
"e  c #232322",
"r  c #2A2A24",
"t  c #2C2C2B",
"y  c #2F3024",
"u  c #333425",
"i  c #373A21",
"p  c #3A3C24",
"a  c #31312D",
"s  c #34352D",
"d  c #33342C",
"f  c #37382C",
"g  c #3A3B2E",
"h  c #313131",
"j  c #373732",
"k  c #343534",
"l  c #343433",
"z  c #3A3B30",
"x  c #3D3E32",
"c  c #3E3E33",
"v  c #393937",
"b  c #3B3C36",
"n  c #3D3E35",
"m  c #3C3D34",
"M  c gray22",
"N  c gray23",
"B  c #3C3C3B",
"V  c #3C4018",
"C  c #3D4018",
"Z  c #3E4119",
"A  c #3F4219",
"S  c #3D401D",
"D  c #3E4119",
"F  c #3E4023",
"G  c #3F4126",
"H  c #40431A",
"J  c #41451A",
"K  c #42461B",
"L  c #43461B",
"P  c #41451A",
"I  c #45491C",
"U  c #45491C",
"Y  c #484C1D",
"T  c #434521",
"R  c #454923",
"E  c #4A4D24",
"W  c #42442C",
"Q  c #45472D",
"!  c #43452A",
"~  c #46482F",
"^  c #494B29",
"/  c #4B4E2E",
"(  c #4A4D2C",
")  c #4D502A",
"_  c #434532",
"`  c #434437",
"'  c #474834",
"]  c #494A30",
"[  c #494A33",
"{  c #464639",
"}  c #46473B",
"|  c #42433C",
" . c #42433C",
".. c #4D4E3A",
"X. c #4F5232",
"o. c #4F5139",
"O. c #525437",
"+. c #525534",
"@. c #555837",
"#. c #585B34",
"$. c #51533E",
"%. c #575A3A",
"&. c #595B3F",
"*. c #5D603B",
"=. c #464743",
"-. c #424241",
";. c #4B4C45",
":. c #484940",
">. c #484848",
",. c #4C4C4B",
"<. c #4F5047",
"1. c #505244",
"2. c #5A5C42",
"3. c #5A5D41",
"4. c #55564A",
"5. c #53544B",
"6. c #57584C",
"7. c #58594E",
"8. c #565655",
"9. c #595A52",
"0. c #5D5E52",
"q. c #5A5A57",
"w. c #5C5D51",
"e. c gray36",
"r. c #5F6145",
"t. c #5F614B",
"y. c #64664B",
"u. c #66694C",
"i. c #656757",
"p. c #6C6F52",
"a. c #62635B",
"s. c #64655A",
"d. c #606060",
"f. c #6C6C61",
"g. c gray43",
"h. c #6D6D6D",
/* pixels */
"                                                                                                                                ",
"                                                                                                                                ",
"                          e                                                                                                     ",
"                        X . . . . X o X o o X o o o o o o X o X o X . . . . X O O *                                             ",
"                      * . . . . X X o o X o o o @ @ @ + + + + o o o o o X . . . . O                                             ",
"                    O . . . X X X o o o @ # # # @ # # # + # + @ o o o o X X o X . X                                             ",
"                  X . . O O X X o o o @ # # # # # $ $ $ # $ # # # # @ o o o o . . O                                             ",
"              >.. . . . * # X X o o # o # $ $ $ $ % % $ % % % $ $ # # # # @ o o X r                                             ",
"            M X . . . X r o X o @ # # # $ $ % % % % & % & % % % $ % $ $ $ # # o o d                                             ",
"            . . X X X o b . o o o o # z                     f.s.7.6.6.< $ $ # # o +                                             ",
"          * . X X o $ # ;.X o o # $ $     o & 5 p ( / ] _ n M N e.    5 % % $ $ $ 4                                             ",
"          X o $ $ $ $ $ 9.X o # o $ &   O # ; 6 w P w 2 > # X *       1 & & % % # <.                                            ",
"          l $ % & & & & s.X @ $ # $ 4   o $ > 8 H H 9 > % o *   t X   > & & % % %                                               ",
"          G % & > > > > n X @ o # $ f    .% > 8 9 8 2 & $ =   O . *   > ; > > & &                                               ",
"          5 > > > 2 2 6 d o o # # $ }   d $ > > 1 > & $ =   * . . t   < > > > & >                                               ",
"          > > 2 2 8 8 p s o @ # $ % u   * # % & & % o 4 h.. . . . h   1 , , > > <                                               ",
"          2 2 8 9 8 9 8 X o @ # # % %                 d.X . . . . .   2 2 1 > > >                                               ",
"          p 8 9 0 w 0 w # o o # $ % &                   . . . . . *   2 6 2 1 2 5                                               ",
"          w 9 w H H C @.>.o @ # # % y                   . . . . . h 2.8 8 2 2 2 !                                               ",
"          0 w J U P H %.j X @ # $ $ {                 t . . . . X 9.O.8 8 8 6 2 Q                                               ",
"          0 D L U P w w r o o + $ $ 0.                k X X o X X   T 9 8 8 8 8 8                                               ",
"          w D J H w 9 &.* X + + # $                   r o o o o @   0 0 0 9 9 8 !                                               ",
"        u.9 w w 0 9 8   o X o @ # $                   $ # $ # $ $   R w 0 0 0 8 y.                                              ",
"        Q 8 9 9 9 8 2   . X o @ # $                   $ $ $ % % &   +.S D D 0 0                                                 ",
"        8 8 8 8 2 2 2   O X X o o $                   u % & & & &   ) J H H C w                                                 ",
"        ~ 2 2 > 2 > 5   - X X @ # # $ % ; < 5 q p     4 & & > ; <   U J P J J C   +.8 8 8 2 2 > > > ; % % $ $ o o X o X O O     ",
"        ..> 1 > > ; &   * X X o o # $ $ & & ; > 1     > > > > > 7   U U U U J J   ( 9 9 8 2 2 2 > > & & % % $ # o o X . . .     ",
"        u > & & % $ <   O . X X o # # % & & & > 1     > 1 1 2 1 W   J U Y U U J   T 0 9 8 6 6 2 2 > > > & % $ # @ o o . . .     ",
"        & & % $ $ # s   X . X X o o # $ % & & > 1     , 2 2 2 2 O.  P P U Y U Y   D w 9 8 8 6 2 2 > > ; & % % $ # o o . . .     ",
"        = $ $ @ o o t   . . . X o o o $ $ % & ; 1     2 6 6 8 8 8   H P U U U #.  D 0 0 9 8 8 2 2 > > > ; % % $ # + o X . X     ",
"        3 o X X X . *   - h t t r r 4 4 4 4 < 1 <     8 8 9 8 8 0   w H P P P *.  D 0 0 9 8 8 2 2 , > > ; & $ $ # + o o . *     ",
"        $ X X . . *                                 &.9 9 0 0 9 O.O.w w H H P P                     $.i.t.4.1.> # # o o o e     ",
"        . . . . *   $ + # & ; > , 1 > > & $ @ X O   O.w w D C 0 p.r.0 0 w w D )                               G $ $ @ o X *     ",
"        . . . *   = o # & > , 2 6 6 2 > > % # o .   S D D J J C   ^ 8 9 0 0 w u.  # % 1 8 w D 8 2 % o . e     r $ $ @ o o .     ",
"        . . O   X O # & > , 6 9 9 8 8 2 > & # o .   L J U U P J   8 8 8 8 0 0     o & 2 9 L D 8 > % . k h.-   & $ $ o o X =     ",
"        . X e X . o % ; , 6 9 C D 0 8 2 < & # o O   #.U U U J D   2 8 8 8 8 9     # ; 2 8 0 8 1 & o h 9.. -   % $ $ $ o o d     ",
"        r ,.. . X # & > 2 9 D L K V 8 2 > % # o -   E L U P J D   ] 2 8 8 8 8     # & , 2 2 , & # r M X o #   ; % $ # o o |     ",
"        l . . . o $ & > 2 9 C J A 0 6 1 ; % o . r   D L J J C 0   p 2 2 2 8 6     o % ; > ; % o # - o % & 1   = % $ # @ o       ",
"                                            8.>.8.  w D D 0 0 9   5 > 2 2 2 2     B n g d r 3 O X $ & 1 2 [   & % $ # o o       ",
"                                                    9 w 9 0 9 8   > > 2 1 1 6                   @ ; 2 8 9 y.  & $ $ $ $ X       ",
"                                                    8 8 9 8 8 F   ; > > > > p                 5.% , 8 J J     % % $ # o o       ",
"                                                    8 8 8 6 6 ..  & & > > > ]                 g ; 2 0 J w   7.% $ $ # # X       ",
"                                                  t.2 6 2 1 1 q   % & ; > > >                 = ; 2 8 8 2   x $ $ # # o o       ",
"                                                  ! 1 1 , , > >   % % & & & 5                 # % > > 2 &   & $ # # # o $       ",
"                                                  1 > > > > > 5   $ % % % & {                 b # % & % #   $ $ $ $ $ o :       ",
"                                                  p ; ; ; & & { 5.# # $ % % _                 | = = & o .   { $ @ o o o e       ",
"                                                  f & & % % % w.s @ # $ $ #                                 4 # @ o o o X       ",
"                                                  < % % % $ $   * o o o # # # $ $ = < < 4 y u f b G `  .:.u # # # o X O #       ",
"                                                  $ $ # $ # o   . o o o o # o $ $ # $ $ $ % % $ $ $ $ $ $ # @ # o o o X e       ",
"                                                  O # o o o X   t . X o o o o # @ @ @ $ # # $ # $ $ $ O # # o o o o o X B       ",
"                                                  o X X X . .   r . . . X X o o o o # # # # $ @ # # # o @ o o O o X X X -       ",
"                                                  o . X . . .   * . . . X X X X o o o o o o # o @ o @ o o o o X X X X .         ",
"                                                B . . . . . .   - - - * O X . . . X o . o o o o o o o o o o X X X X . .         ",
"                                                M . . . . . e                                   | =.l r = o r e - # . .         ",
"                                                * . . . . e   - O # $ & > > 2 6 8 9 0 w 0 9 8 2 > ; % $ o o O O X . . O         ",
"                                                . . . . -   X . X $ % & > , 2 8 0 D H D 0 9 8 2 , > & $ @ o . . . . -           ",
"                                                h . . - t X . o @ $ & > > 2 8 9 C J U J C 9 8 2 > ; % # o . . . . h             ",
"                                                - . ,.N . . . o # $ & > 2 6 9 0 J U U H 0 9 6 , > & % # X . . . O               ",
"                                                . N k . . . . o # % ; > 2 6 9 0 J J J V 9 8 2 > > % $ o X . . -                 ",
"                                                t - . . . . o @ $ & ; 1 2 8 9 0 w C 0 9 8 2 > > & $ O X . X M                   ",
"                                                -.h t e - - = = & & > , 2 6 8 9 / X./ Q G p q 4 < & O . . 8.                    ",
"                                                                                                                                ",
"                                                                                                                                ",
"                                                                                                                                "
};
